# xmcd CD database file
#
# Track frame offsets:
#	150
#	4932
#	9740
#	14535
#	20165
#	26232
#	37310
#	42812
#	52182
#	58480
#	65907
#	72587
#	76562
#	81592
#	92532
#	97330
#	101615
#	110415
#	124650
#	131632
#	138527
#	151337
#	156552
#	161985
#	166412
#	171287
#	175787
#	180315
#	185620
#	189957
#	194837
#	201587
#	206612
#	211480
#	217412
#	222747
#	226792
#	231440
#	236465
#	242690
#	248987
#	252657
#	258742
#
# Disc length: 3542 seconds
#
# Revision: 0
# Processed by: cddbd v1.4PL0 Copyright (c) Steve Scherf et al.
# Submitted via: CDex 1.51
#
DISCID=ab0dd42b
DTITLE=Virgil Thomson - Portraits
DYEAR=1993
DGENRE=Jazz
TTITLE0=Madame Dubost chez elle
TTITLE1=Russel Hitchcock, Reading
TTITLE2=Ettis Stettheimer
TTITLE3=Helen Austin at Home and Abroad
TTITLE4=A French Boy of Ten: Louis Lange
TTITLE5=Pastoral: A Portrait of Tristan Tzara
TTITLE6=Awake or Asleep: Pierre Mabille
TTITLE7=Prisoner of the Mind: Schuyler Watts
TTITLE8=For Eugene Ormandy's Birthday
TTITLE9=The Parson Writes His Book
TTITLE10=The Parson Instructs
TTITLE11=The Hatchet
TTITLE12=The Pitcher and the Bucket
TTITLE13=Rum is a Demon
TTITLE14=Martha's Secret Love
TTITLE15=Molly Whips the Army into Shape
TTITLE16=Crossing the Delaware
TTITLE17=Hard Times at Valley Forge
TTITLE18=On to Glory
TTITLE19=Cavalry Manoeuvres
TTITLE20=Chopping Tree
TTITLE21=With Marked Rhythm
TTITLE22=Freely
TTITLE23=Flowing
TTITLE24=Rhythmically
TTITLE25=Firmly
TTITLE26=Molly Davis: Terminations
TTITLE27=Dennis Russel Davies: In a Hammock
TTITLE28=Rodney Lister: Music for a Merris-Go-Round
TTITLE29=Dona Flor: Receiving
TTITLE30=Dr. Mabel Roche: Making a Decision
TTITLE31=David Dubal: In Flight
TTITLE32=Peter McWilliams: Firmly Spontaneous
TTITLE33=Vassilis Voglis: On the March
TTITLE34=Power Boothe: With Pencil
TTITLE35=Mark Beard: Never Alone
TTITLE36=Louis Rispoli: In a Boat
TTITLE37=Malitte Matta: In the Executive Style
TTITLE38=Glynn Boyd Harte: Reaching
TTITLE39=Bennett Lerner: Senza Espressione
TTITLE40=Phillip Ramey: Thinking Hard
TTITLE41=Charles Fussel: In Meditation
TTITLE42=Brendan Lemon: A Study Piece for Piano
EXTD=YEAR: 1993
EXTT0=
EXTT1=
EXTT2=
EXTT3=
EXTT4=
EXTT5=
EXTT6=
EXTT7=
EXTT8=
EXTT9=
EXTT10=
EXTT11=
EXTT12=
EXTT13=
EXTT14=
EXTT15=
EXTT16=
EXTT17=
EXTT18=
EXTT19=
EXTT20=
EXTT21=
EXTT22=
EXTT23=
EXTT24=
EXTT25=
EXTT26=
EXTT27=
EXTT28=
EXTT29=
EXTT30=
EXTT31=
EXTT32=
EXTT33=
EXTT34=
EXTT35=
EXTT36=
EXTT37=
EXTT38=
EXTT39=
EXTT40=
EXTT41=
EXTT42=
PLAYORDER=
